<?xml version="1.0" standalone="no"?>
<!DOCTYPE svg PUBLIC "-//W3C//DTD SVG 20010904//EN"
 "http://www.w3.org/TR/2001/REC-SVG-20010904/DTD/svg10.dtd">
<svg version="1.0" xmlns="http://www.w3.org/2000/svg"
 width="265.000000pt" height="265.000000pt" viewBox="0 0 265.000000 220.000000"
 preserveAspectRatio="xMidYMid meet">
<metadata>
Created by potrace 1.16, written by Peter Selinger 2001-2019
</metadata>
<g transform="translate(0.000000,265.000000) scale(0.100000,-0.100000)"
fill="#000000" stroke="none">
<path d="M1690 2513 c-19 -10 -36 -21 -38 -25 -2 -4 -10 -8 -18 -8 -8 0 -14
-4 -14 -10 0 -5 -7 -10 -16 -10 -9 0 -18 -9 -21 -20 -3 -11 -12 -20 -19 -20
-8 0 -14 -10 -14 -25 0 -13 -7 -28 -16 -33 -32 -18 -31 -212 2 -212 9 0 14
-11 14 -30 0 -20 5 -30 15 -30 8 0 15 -7 15 -15 0 -8 7 -15 15 -15 9 0 18 -7
21 -15 4 -8 12 -15 20 -15 8 0 14 -4 14 -8 0 -17 136 -44 186 -37 53 8 124 35
124 47 0 5 7 8 15 8 9 0 18 7 21 15 4 8 12 15 20 15 8 0 14 9 14 20 0 11 7 20
15 20 10 0 17 14 21 40 4 24 12 40 20 40 10 0 14 17 14 65 0 48 -4 65 -14 65
-8 0 -16 16 -20 40 -4 26 -11 40 -21 40 -8 0 -15 9 -15 20 0 11 -7 20 -15 20
-8 0 -15 7 -15 15 0 8 -7 15 -15 15 -7 0 -18 6 -22 14 -12 20 -113 46 -180 46
-34 0 -73 -8 -93 -17z"/>
<path d="M1050 2120 c-90 -10 -241 -56 -260 -80 -3 -4 -20 -13 -37 -21 -18 -8
-33 -17 -33 -21 0 -5 -7 -8 -15 -8 -8 0 -15 -7 -15 -15 0 -8 -7 -15 -15 -15
-9 0 -18 -7 -21 -15 -4 -8 -12 -15 -20 -15 -8 0 -14 -7 -14 -15 0 -8 -6 -15
-14 -15 -8 0 -18 -9 -21 -20 -3 -11 -13 -20 -21 -20 -8 0 -14 -9 -14 -20 0
-11 -7 -20 -15 -20 -8 0 -15 -7 -15 -15 0 -8 -9 -19 -20 -25 -15 -8 -20 -21
-20 -56 0 -30 5 -46 15 -50 8 -3 17 -14 20 -25 4 -10 13 -19 21 -19 8 0 14 -4
14 -9 0 -16 85 -31 119 -21 61 17 91 35 91 52 0 10 7 18 15 18 8 0 15 5 15 11
0 14 47 59 61 59 5 0 9 6 9 13 0 7 16 19 35 27 19 8 35 17 35 22 0 4 6 8 13 8
6 0 24 6 38 14 37 19 127 28 198 20 58 -6 61 -8 61 -33 0 -15 -9 -34 -20 -44
-11 -9 -20 -26 -20 -37 0 -11 -7 -20 -15 -20 -10 0 -15 -10 -15 -30 0 -19 -5
-30 -14 -30 -8 0 -17 -13 -21 -30 -4 -16 -13 -30 -21 -30 -9 0 -14 -11 -14
-30 0 -20 -5 -30 -15 -30 -9 0 -15 -9 -15 -23 0 -12 -9 -30 -20 -40 -11 -9
-20 -28 -20 -42 0 -16 -6 -25 -15 -25 -10 0 -15 -10 -15 -30 0 -19 -7 -33 -20
-40 -12 -6 -20 -21 -20 -35 0 -16 -6 -25 -15 -25 -9 0 -15 -9 -15 -25 0 -15
-6 -25 -14 -25 -8 0 -17 -9 -21 -19 -3 -11 -12 -22 -20 -25 -8 -3 -15 -12 -15
-21 0 -8 -5 -15 -10 -15 -6 0 -24 -13 -40 -30 -16 -17 -34 -30 -40 -30 -5 0
-10 -3 -10 -8 0 -4 -15 -13 -32 -21 -18 -8 -35 -17 -38 -20 -12 -15 -121 -41
-171 -41 -61 0 -113 12 -179 42 -65 30 -108 33 -158 12 -23 -10 -42 -24 -42
-31 0 -7 -9 -17 -20 -23 -17 -9 -20 -21 -20 -77 0 -58 3 -69 26 -89 14 -13 29
-24 35 -24 5 0 9 -4 9 -9 0 -5 16 -12 35 -15 19 -4 35 -11 35 -15 0 -4 44 -20
98 -35 143 -38 262 -37 408 5 60 17 111 35 114 38 3 4 20 14 38 22 17 8 32 16
32 20 0 3 16 11 35 19 19 8 35 20 35 27 0 7 6 13 14 13 8 0 16 7 20 15 3 8 12
15 21 15 8 0 15 7 15 15 0 8 7 15 15 15 8 0 15 7 15 16 0 12 7 14 33 9 17 -4
34 -11 37 -15 3 -4 20 -11 38 -15 17 -3 32 -11 32 -16 0 -5 5 -9 11 -9 13 0
82 -31 89 -40 3 -4 20 -13 38 -21 17 -8 32 -16 32 -20 0 -3 16 -11 35 -19 19
-8 35 -19 35 -25 0 -6 16 -17 35 -25 19 -8 35 -17 35 -22 0 -4 7 -8 15 -8 8 0
15 -6 15 -14 0 -7 9 -16 20 -19 12 -3 20 -14 20 -26 0 -12 6 -21 15 -21 9 0
15 -9 15 -23 0 -12 9 -30 20 -40 11 -9 20 -26 20 -37 0 -11 7 -20 15 -20 10 0
15 -11 15 -35 0 -23 5 -35 14 -35 8 0 17 -15 20 -35 4 -21 13 -35 21 -35 10 0
15 -11 15 -35 0 -24 5 -35 15 -35 9 0 15 -9 15 -25 0 -14 9 -33 20 -42 11 -10
20 -22 20 -29 0 -12 64 -34 100 -34 36 0 102 23 107 37 3 7 11 13 19 13 21 0
20 168 -1 176 -8 3 -17 21 -21 40 -3 19 -12 34 -20 34 -9 0 -14 12 -14 35 0
24 -5 35 -15 35 -9 0 -15 9 -15 25 0 14 -9 33 -20 42 -11 10 -20 28 -20 40 0
14 -6 23 -15 23 -10 0 -15 10 -15 30 0 20 -5 30 -15 30 -9 0 -18 12 -21 30 -4
17 -13 30 -20 30 -8 0 -14 9 -14 20 0 10 -9 24 -20 30 -11 6 -20 17 -20 25 0
8 -7 15 -15 15 -8 0 -15 5 -15 10 0 6 -6 10 -14 10 -8 0 -16 7 -20 15 -3 8
-12 15 -21 15 -8 0 -15 5 -15 10 0 6 -6 10 -14 10 -8 0 -16 7 -20 15 -3 8 -12
15 -21 15 -8 0 -15 5 -15 10 0 6 -7 10 -15 10 -8 0 -15 5 -15 10 0 6 -7 10
-15 10 -7 0 -18 6 -22 13 -9 14 -59 45 -85 54 -10 3 -18 9 -18 13 0 5 -15 12
-32 16 -18 4 -28 9 -21 11 7 3 15 20 19 39 3 19 12 34 20 34 9 0 14 11 14 30
0 19 5 30 14 30 8 0 17 13 21 30 4 17 13 30 21 30 9 0 14 11 14 30 0 20 5 30
15 30 8 0 15 9 15 20 0 11 9 28 20 37 11 10 20 28 20 40 0 14 6 23 15 23 9 0
15 9 15 25 0 14 8 29 20 35 11 6 20 20 20 32 0 23 -2 23 140 -2 36 -7 98 -9
139 -6 80 6 231 44 231 58 0 4 9 8 19 8 11 0 21 3 23 8 4 9 57 41 81 49 9 3
17 9 17 14 0 5 6 9 14 9 8 0 16 7 20 15 3 8 12 15 21 15 8 0 15 7 15 15 0 8 6
15 14 15 7 0 16 9 19 20 3 11 12 20 21 20 9 0 16 8 16 20 0 11 7 20 15 20 8 0
15 7 15 15 0 8 9 19 20 25 17 9 20 21 20 76 0 57 -3 67 -20 71 -11 3 -20 9
-20 14 0 5 -6 9 -14 9 -8 0 -16 5 -18 12 -5 14 -127 25 -137 12 -3 -5 -19 -17
-36 -26 -16 -9 -31 -26 -33 -37 -2 -12 -10 -21 -18 -21 -8 0 -14 -7 -14 -15 0
-8 -7 -15 -15 -15 -9 0 -18 -7 -21 -15 -4 -8 -12 -15 -20 -15 -8 0 -14 -6 -14
-13 0 -7 -16 -19 -35 -27 -19 -8 -35 -17 -35 -20 0 -4 -30 -15 -66 -25 -76
-21 -212 -16 -260 10 -16 8 -33 15 -37 15 -11 0 -80 32 -87 40 -7 9 -76 40
-89 40 -6 0 -11 4 -11 8 0 5 -16 14 -35 22 -19 8 -35 17 -35 21 0 4 -15 11
-32 14 -18 4 -35 11 -38 14 -8 12 -121 40 -185 46 -33 3 -71 7 -85 9 -14 1
-54 -1 -90 -4z"/>
</g>
</svg>
