<?xml version="1.0" standalone="no"?>
<!DOCTYPE svg PUBLIC "-//W3C//DTD SVG 20010904//EN"
 "http://www.w3.org/TR/2001/REC-SVG-20010904/DTD/svg10.dtd">
<svg version="1.0" xmlns="http://www.w3.org/2000/svg"
 width="512.000000pt" height="512.000000pt" viewBox="0 0 512.000000 512.000000"
 preserveAspectRatio="xMidYMid meet">

<g transform="translate(0.000000,512.000000) scale(0.100000,-0.100000)"
fill="#000000" stroke="none">
<path d="M1295 5064 c-141 -19 -191 -29 -265 -49 -115 -32 -216 -74 -314 -131
-579 -333 -847 -1012 -650 -1649 36 -117 132 -307 205 -406 111 -149 2281
-2770 2291 -2767 6 2 142 163 304 358 l294 355 -3 385 -2 385 -387 3 -388 2 0
675 0 675 390 0 390 0 0 385 0 385 675 0 675 0 0 -385 0 -385 197 2 197 3 48
90 c60 114 103 230 136 370 22 95 26 133 26 280 0 197 -15 297 -70 462 -159
479 -556 828 -1064 934 -140 29 -392 32 -524 6 -336 -68 -652 -256 -841 -501
-27 -36 -52 -65 -55 -65 -3 0 -27 29 -55 65 -188 244 -509 436 -836 499 -81
16 -313 28 -374 19z"/>
<path d="M3497 3333 c-4 -3 -7 -179 -7 -390 l0 -383 -385 0 -385 0 0 -340 0
-340 385 0 385 0 0 -385 0 -385 340 0 340 0 0 385 0 385 388 2 387 3 3 338 2
337 -390 0 -390 0 0 390 0 390 -333 0 c-184 0 -337 -3 -340 -7z"/>
</g>
</svg>
