<?xml version="1.0" standalone="no"?>
<!DOCTYPE svg PUBLIC "-//W3C//DTD SVG 20010904//EN"
 "http://www.w3.org/TR/2001/REC-SVG-20010904/DTD/svg10.dtd">
<svg version="1.0" xmlns="http://www.w3.org/2000/svg"
 width="200.000000pt" height="200.000000pt" viewBox="0 0 200.000000 200.000000"
 preserveAspectRatio="xMidYMid meet">

<g transform="translate(0.000000,200.000000) scale(0.100000,-0.100000)"
fill="#000000" stroke="none">
<path d="M353 1990 c-32 -13 -43 -41 -43 -112 -1 -91 -25 -212 -55 -273 -23
-49 -85 -115 -131 -141 -17 -10 -19 -23 -19 -150 l0 -139 279 -3 c243 -2 282
-4 298 -19 16 -14 18 -34 18 -165 0 -135 -2 -150 -20 -168 -19 -19 -33 -20
-300 -20 l-280 0 0 -50 0 -50 280 0 c267 0 281 -1 300 -20 18 -18 20 -33 20
-168 0 -131 -2 -151 -18 -165 -16 -15 -55 -17 -298 -19 l-279 -3 0 -146 c0
-109 3 -150 14 -162 12 -16 87 -17 886 -17 799 0 874 1 886 17 11 12 14 53 14
162 l0 146 -288 5 c-271 5 -290 6 -303 24 -10 15 -14 55 -14 158 0 134 1 140
25 163 l24 25 276 0 275 0 0 50 0 50 -275 0 -276 0 -24 25 c-24 23 -25 29 -25
165 0 196 -29 180 320 180 l280 0 0 140 0 140 -51 37 c-99 74 -135 158 -148
348 -8 112 -11 121 -35 142 -25 21 -37 23 -141 23 -105 0 -116 -2 -141 -23
-25 -22 -27 -30 -34 -133 -7 -129 -27 -180 -94 -252 -25 -27 -71 -62 -103 -78
-51 -25 -68 -29 -148 -29 -79 0 -97 4 -147 28 -74 36 -140 102 -174 174 -22
47 -28 77 -33 165 -8 143 -7 142 -159 145 -64 2 -127 -2 -139 -7z m667 -1240
c0 -363 0 -370 -20 -370 -20 0 -20 7 -20 370 0 363 0 370 20 370 20 0 20 -7
20 -370z"/>
<path d="M67 1117 c-15 -11 -17 -28 -15 -137 l3 -125 295 0 295 0 3 125 c2
109 0 126 -15 137 -24 18 -542 18 -566 0z"/>
<path d="M1367 1117 c-15 -11 -17 -28 -15 -137 l3 -125 295 0 295 0 3 125 c2
109 0 126 -15 137 -24 18 -542 18 -566 0z"/>
<path d="M57 643 c-4 -3 -7 -62 -7 -129 0 -112 2 -124 19 -134 30 -16 542 -14
564 3 15 11 17 28 15 137 l-3 125 -291 3 c-160 1 -293 -1 -297 -5z"/>
<path d="M1357 643 c-4 -3 -7 -62 -7 -129 0 -112 2 -124 19 -134 30 -16 542
-14 564 3 15 11 17 28 15 137 l-3 125 -291 3 c-160 1 -293 -1 -297 -5z"/>
</g>
</svg>
