<?xml version="1.0" standalone="no"?>
<!DOCTYPE svg PUBLIC "-//W3C//DTD SVG 20010904//EN"
 "http://www.w3.org/TR/2001/REC-SVG-20010904/DTD/svg10.dtd">
<svg version="1.0" xmlns="http://www.w3.org/2000/svg"
 width="792.000000pt" height="980.000000pt" viewBox="0 0 792.000000 980.000000"
 preserveAspectRatio="xMidYMid meet">

<g transform="translate(0.000000,980.000000) scale(0.100000,-0.100000)"
fill="#000000" stroke="none">
<path d="M3680 9789 c-492 -43 -866 -192 -1138 -453 -127 -121 -215 -243 -300
-413 -155 -309 -232 -699 -232 -1183 0 -297 34 -538 115 -821 164 -567 523
-1084 960 -1379 l73 -49 7 -78 c8 -99 -8 -202 -43 -273 -33 -67 -109 -131
-233 -195 -91 -47 -258 -115 -282 -115 -8 0 -95 122 -193 272 l-178 271 28 21
c133 96 149 120 144 213 -2 35 -9 68 -15 74 -8 8 -72 -30 -234 -137 l-224
-147 -200 41 c-110 22 -201 39 -202 38 -1 -1 31 -52 72 -114 41 -61 75 -116
75 -120 0 -5 -56 -46 -125 -92 -69 -46 -125 -89 -125 -96 0 -8 19 -26 42 -41
33 -22 53 -28 98 -28 55 0 89 15 202 89 l28 18 130 -199 c122 -187 128 -198
107 -205 -12 -4 -175 -35 -362 -68 -411 -72 -433 -78 -560 -139 -207 -101
-369 -234 -456 -375 -303 -491 -525 -1386 -624 -2516 -35 -402 -31 -580 16
-706 32 -85 57 -105 219 -172 1034 -426 2307 -682 3535 -709 1236 -27 2770
255 3846 707 160 67 185 87 217 172 48 127 52 293 17 696 -99 1140 -315 2013
-624 2526 -93 153 -286 305 -510 401 -93 39 -166 55 -571 126 -162 28 -300 54
-307 58 -14 8 240 398 257 393 6 -1 42 -23 81 -49 55 -37 81 -47 123 -51 57
-5 114 17 149 56 19 21 18 21 -116 109 l-135 88 69 105 c38 58 74 112 79 121
8 14 -21 10 -173 -22 -100 -21 -192 -38 -204 -39 -13 0 -122 65 -244 145 -122
80 -223 145 -224 143 -16 -19 -25 -56 -25 -101 0 -69 24 -107 105 -164 33 -23
59 -48 59 -56 -1 -8 -80 -134 -177 -280 l-175 -266 -91 34 c-176 65 -285 125
-368 199 -84 76 -121 196 -108 353 l7 81 56 38 c505 332 896 946 1036 1629 98
475 68 1087 -75 1525 -44 133 -136 322 -210 432 -84 124 -258 297 -378 377
-222 147 -491 241 -821 286 -139 19 -543 27 -690 14z m1431 -1163 c263 -56
476 -253 561 -520 31 -96 35 -294 10 -419 -56 -271 -223 -448 -487 -518 -107
-29 -314 -32 -395 -7 -82 25 -164 83 -288 201 -182 174 -261 226 -392 258 -79
20 -260 17 -334 -5 -133 -39 -202 -87 -396 -271 -183 -172 -290 -216 -496
-201 -205 14 -354 76 -474 196 -136 135 -200 310 -200 543 0 230 102 450 274
589 81 65 198 124 293 147 75 19 126 20 1168 20 895 1 1102 -2 1156 -13z"/>
<path d="M605 7970 c-48 -11 -557 -351 -575 -384 -32 -62 -9 -138 53 -176 40
-25 82 -25 130 -1 l37 19 111 -172 c61 -94 114 -174 118 -178 8 -9 681 -150
698 -146 16 4 -219 360 -244 370 -15 6 -645 138 -662 138 -15 1 272 180 287
180 10 0 58 -9 107 -19 49 -11 91 -18 93 -16 2 2 -15 31 -38 65 -40 58 -41 62
-23 75 10 8 21 15 25 15 3 0 16 20 28 45 23 48 21 89 -8 133 -26 40 -87 63
-137 52z"/>
<path d="M7243 7964 c-98 -34 -118 -152 -38 -223 l35 -30 -40 -62 c-22 -34
-39 -63 -38 -65 2 -1 41 6 88 16 47 11 96 19 109 19 20 1 296 -168 288 -175
-1 -2 -146 -32 -322 -69 -176 -36 -328 -69 -338 -73 -24 -10 -259 -366 -244
-370 17 -4 690 137 698 146 4 4 57 84 119 179 l112 172 36 -19 c20 -11 50 -20
67 -20 37 0 88 30 111 65 24 37 23 109 -3 143 -28 37 -535 368 -572 374 -17 2
-48 -1 -68 -8z"/>
<path d="M679 6773 c6 -10 61 -94 123 -188 l113 -170 349 -73 c192 -40 351
-70 353 -68 2 2 -51 86 -117 187 l-121 184 -342 72 c-188 40 -348 72 -355 72
-9 1 -10 -4 -3 -16z"/>
<path d="M6884 6717 l-340 -71 -123 -184 c-67 -101 -120 -186 -118 -188 4 -4
666 130 694 140 9 4 184 262 247 364 10 17 22 19 -360 -61z"/>
<path d="M1217 5953 c64 -98 119 -182 124 -187 8 -9 701 -156 708 -150 4 4
-210 334 -234 361 -9 11 -661 153 -700 153 -9 0 32 -71 102 -177z"/>
<path d="M6477 6065 c-163 -34 -312 -66 -331 -69 -31 -6 -45 -23 -156 -192
-67 -101 -121 -186 -119 -189 7 -6 699 141 708 151 5 5 60 89 124 187 100 152
113 177 94 176 -12 -1 -156 -29 -320 -64z"/>
</g>
</svg>
