<?xml version="1.0" standalone="no"?>
<!DOCTYPE svg PUBLIC "-//W3C//DTD SVG 20010904//EN"
 "http://www.w3.org/TR/2001/REC-SVG-20010904/DTD/svg10.dtd">
<svg version="1.0" xmlns="http://www.w3.org/2000/svg"
 width="512.000000pt" height="512.000000pt" viewBox="0 0 512.000000 512.000000"
 preserveAspectRatio="xMidYMid meet">

<g transform="translate(0.000000,512.000000) scale(0.100000,-0.100000)"
fill="#000000" stroke="none">
<path d="M2575 5105 c-22 -8 -41 -15 -43 -15 -1 0 -11 -19 -21 -42 -10 -24
-59 -89 -109 -145 -378 -426 -784 -1014 -1054 -1528 -268 -510 -417 -920 -499
-1375 -20 -108 -23 -160 -23 -380 -1 -230 2 -265 22 -360 67 -307 180 -519
387 -725 131 -131 272 -229 459 -320 227 -110 433 -172 671 -200 164 -19 276
-19 436 0 789 92 1378 652 1490 1415 17 119 6 398 -20 520 -62 283 -182 563
-362 846 -83 130 -161 236 -388 522 -365 460 -473 618 -591 857 -116 235 -185
482 -209 743 -10 111 -26 161 -61 189 -19 16 -36 15 -85 -2z m-961 -2819 c23
-82 91 -233 140 -311 91 -142 175 -216 466 -410 210 -140 298 -204 388 -283
115 -101 212 -255 212 -337 0 -51 -37 -131 -86 -185 -49 -54 -196 -150 -292
-191 -165 -71 -339 -33 -567 121 -269 182 -475 596 -475 952 0 89 5 125 35
234 43 157 147 474 156 474 3 0 14 -29 23 -64z"/>
</g>
</svg>
