<?xml version="1.0" standalone="no"?>
<!DOCTYPE svg PUBLIC "-//W3C//DTD SVG 20010904//EN"
 "http://www.w3.org/TR/2001/REC-SVG-20010904/DTD/svg10.dtd">
<svg version="1.0" xmlns="http://www.w3.org/2000/svg"
 width="981.000000pt" height="734.000000pt" viewBox="0 0 981.000000 734.000000"
 preserveAspectRatio="xMidYMid meet">

<g transform="translate(0.000000,734.000000) scale(0.100000,-0.100000)"
fill="#000000" stroke="none">
<path d="M4470 7329 c-41 -5 -149 -18 -240 -30 -295 -37 -508 -80 -775 -156
-590 -167 -1174 -463 -1609 -813 -117 -95 -379 -351 -506 -495 -341 -387 -584
-900 -675 -1425 -15 -86 -44 -353 -45 -407 l0 -23 4290 0 4290 0 0 23 c-1 54
-30 321 -45 407 -62 359 -188 695 -380 1019 -203 343 -610 773 -980 1037 -670
478 -1590 802 -2420 854 -241 15 -816 21 -905 9z m-798 -920 c81 -17 209 -82
251 -128 44 -48 72 -135 62 -189 -32 -174 -329 -307 -580 -261 -130 24 -260
111 -305 203 -26 55 -26 134 -1 184 41 81 145 152 271 186 66 18 228 20 302 5z
m2471 -8 c187 -48 290 -146 290 -276 0 -96 -73 -183 -217 -258 l-61 -32 -175
0 -175 0 -75 40 c-102 55 -175 129 -195 200 -15 50 -15 60 -1 109 28 94 121
170 266 217 78 25 243 25 343 0z m-3852 -1215 c76 -16 181 -65 233 -108 69
-56 102 -164 76 -244 -29 -87 -193 -200 -326 -225 -70 -13 -237 -6 -311 15
-158 43 -263 153 -263 276 1 200 304 346 591 286z m2745 -1 c143 -27 266 -104
305 -190 25 -54 24 -135 -1 -184 -27 -54 -111 -125 -197 -168 -68 -34 -80 -36
-190 -41 -142 -5 -214 7 -310 53 -203 95 -249 279 -106 419 104 101 310 147
499 111z m2759 0 c94 -20 210 -77 257 -125 37 -40 68 -117 68 -169 -1 -81 -90
-180 -219 -244 l-85 -42 -155 0 c-147 1 -160 2 -221 28 -190 80 -270 215 -210
355 67 157 327 247 565 197z"/>
<path d="M300 3325 c-112 -56 -178 -117 -223 -202 -51 -99 -62 -161 -62 -368
0 -207 11 -269 62 -368 45 -85 107 -141 222 -201 l89 -46 4521 0 4521 0 92 46
c149 75 236 181 269 329 18 80 18 399 0 480 -32 144 -123 258 -258 322 -95 46
-171 52 -613 53 l-345 0 -455 -455 -455 -455 -455 455 -455 455 -3185 -1
-3185 0 -85 -44z"/>
<path d="M621 1283 c0 -137 4 -401 7 -589 l7 -340 39 -80 c75 -151 190 -236
347 -256 58 -7 1269 -12 3940 -15 l3856 -4 89 43 c117 57 191 128 241 235 l37
78 7 350 c4 192 8 457 8 588 l1 237 -4290 0 -4290 0 1 -247z"/>
</g>
</svg>
