<?xml version="1.0" standalone="no"?>
<!DOCTYPE svg PUBLIC "-//W3C//DTD SVG 20010904//EN"
 "http://www.w3.org/TR/2001/REC-SVG-20010904/DTD/svg10.dtd">
<svg version="1.0" xmlns="http://www.w3.org/2000/svg"
 width="512.000000pt" height="512.000000pt" viewBox="0 0 512.000000 512.000000"
 preserveAspectRatio="xMidYMid meet">

<g transform="translate(0.000000,512.000000) scale(0.100000,-0.100000)"
fill="#000000" stroke="none">
<path d="M2415 4674 c-998 -51 -1830 -528 -2052 -1179 -27 -80 -53 -217 -53
-281 l0 -44 2250 0 2250 0 0 44 c0 65 -26 201 -54 284 -185 541 -820 984
-1616 1126 -221 39 -522 60 -725 50z m-195 -237 c68 -34 13 -82 -95 -82 -52 0
-78 5 -99 18 -59 39 -10 77 99 77 39 0 81 -6 95 -13z m1084 -140 c28 -21 15
-49 -34 -74 -85 -44 -190 -40 -190 6 0 51 175 104 224 68z m-1676 -271 c16
-16 15 -19 -11 -41 -52 -46 -175 -61 -217 -27 -21 17 -21 18 -3 41 38 47 194
65 231 27z m1052 -51 c69 -36 13 -80 -100 -80 -102 0 -155 45 -92 79 37 20
154 21 192 1z m1590 -48 c62 -31 17 -76 -83 -84 -43 -4 -73 -1 -100 10 -48 21
-51 52 -4 72 40 18 154 19 187 2z m-2233 -253 c14 -38 -54 -84 -138 -92 -90
-9 -127 20 -80 62 48 43 205 64 218 30z m1684 -61 c65 -34 78 -66 32 -84 -57
-22 -213 36 -213 80 0 27 9 31 70 31 42 0 71 -7 111 -27z m-2671 -100 c64 -33
80 -54 60 -78 -29 -35 -194 7 -224 56 -33 55 71 69 164 22z m1780 -51 c19 -9
35 -24 35 -32 0 -41 -139 -65 -209 -36 -44 18 -52 33 -31 56 30 33 149 41 205
12z"/>
<path d="M280 3047 c-97 -65 -96 -203 2 -262 33 -20 53 -20 2233 -23 1210 -2
2224 0 2254 3 152 18 197 207 68 285 -31 20 -69 20 -2278 20 l-2246 0 -33 -23z"/>
<path d="M381 2640 c-139 -50 -239 -165 -270 -308 -14 -68 -14 -295 0 -364 26
-125 132 -254 246 -300 l58 -23 2145 0 2145 0 58 23 c114 46 220 175 246 300
14 69 14 296 0 364 -27 124 -121 242 -236 296 -55 25 -68 27 -229 30 l-171 4
-99 -102 c-366 -377 -668 -492 -914 -347 -31 18 -115 94 -195 174 -85 85 -156
149 -178 158 -75 31 -173 14 -250 -43 -35 -25 -62 -36 -97 -40 -63 -6 -109 20
-218 123 l-80 75 -953 0 c-921 -1 -956 -1 -1008 -20z"/>
<path d="M313 1438 c21 -361 198 -592 543 -708 147 -50 323 -80 604 -102 221
-17 2112 -17 2300 0 606 56 887 214 1004 565 23 70 46 210 46 284 l0 64 -1187
-4 c-1189 -5 -1240 -6 -1498 -42 -256 -37 -518 -106 -686 -182 -111 -51 -224
-130 -298 -209 -64 -69 -70 -73 -76 -52 -15 47 -89 185 -133 248 -26 36 -84
104 -131 153 l-84 87 -205 0 -205 0 6 -102z"/>
</g>
</svg>
