<svg id="Capa_1" enable-background="new 0 0 510 510" height="512" viewBox="0 0 510 510" width="512" xmlns="http://www.w3.org/2000/svg"><g><path d="m188.279 139.078c17.596-2.706 35.542-4.078 53.34-4.078s35.744 1.372 53.34 4.078l125.041 19.238v-55.871l-71.342-11.264c-68.76-10.858-138.512-11.021-207.32-.487l-56.769 8.69c-14.061 2.152-26.907 9.281-36.174 20.073-9.266 10.792-14.369 24.57-14.369 38.795v5.98z"/><path d="m450 5h60v80h-60z"/><path d="m139.599 352.544c15.775-6.517 28.419-19.358 34.691-35.231l18.264-46.226c8.01-20.271 27.27-33.37 49.065-33.37h.117.116c21.796 0 41.056 13.099 49.065 33.369l18.264 46.227c6.272 15.873 18.787 29.036 34.69 35.231 5.026 1.958 10.974 1.456 26.481 1.456 18.109 0 35.194-10.373 49.647-22.707v-142.624l-129.603-19.939c-16.091-2.475-32.503-3.729-48.778-3.729-16.255 0-32.646 1.252-48.718 3.721l-160.336 26.146-.01.132h-.797l-.958.156-.026-.156h-30.773v30h30.332l-1.829 24.684c-2.22 29.976 9.91 59.744 32.446 79.629l1.051.927c18.12 15.987 40.844 24.262 63.858 24.262 8.984 0 12.459-1.428 13.741-1.958z"/><path d="m263.018 282.11c-3.455-8.743-11.763-14.394-21.165-14.394h-.116-.117c-9.402 0-17.71 5.65-21.165 14.395l-18.264 46.225c-3.708 9.384-8.947 18.031-15.368 25.664h109.827c-6.421-7.633-11.66-16.28-15.368-25.664z"/><path d="m450 115v297.061c0 17.829-14.506 32.335-32.335 32.335h-47.665v60.604h60.747c43.7 0 79.253-35.553 79.253-79.253v-310.747z"/><path d="m340 444.396h-69.527v-59.396h-60.473v74.253c0 25.225 20.522 45.747 45.747 45.747h84.253z"/></g></svg>