<svg height="512pt" viewBox="0 0 512 512" width="512pt" xmlns="http://www.w3.org/2000/svg"><path d="m52.964844 220.691406c-1.589844 3.707032-3.355469 7.414063-5.121094 11.121094l-20.65625 41.929688h25.777344zm0 0"/><path d="m150.070312 0h-70.621093c-4.875 0-8.828125 3.953125-8.828125 8.828125v17.65625h88.277344v-17.65625c0-4.875-3.953126-8.828125-8.828126-8.828125zm0 0"/><path d="m70.621094 44.136719h88.277344v17.65625h-88.277344zm0 0"/><path d="m160.484375 79.273438c-.523437.101562-1.054687.160156-1.585937.175781h-88.277344v72.03125c0 2.472656 0 4.945312-.089844 7.417969h.089844v114.757812h61.792968v-61.792969c-.003906-1.996093.679688-3.929687 1.941407-5.472656l57.378906-71.769531c-16.335937-14.417969-27.34375-33.914063-31.25-55.347656zm0 0"/><path d="m441.378906 8.828125c0-4.875-3.953125-8.828125-8.828125-8.828125h-70.621093c-4.875 0-8.828126 3.953125-8.828126 8.828125v17.65625h88.277344zm0 0"/><path d="m353.101562 44.136719h88.277344v17.65625h-88.277344zm0 0"/><path d="m351.515625 79.273438c-3.5 19.40625-12.867187 37.277343-26.835937 51.199218-1.414063 1.410156-2.914063 2.824219-4.414063 4.148438l57.378906 71.769531c1.261719 1.542969 1.945313 3.476563 1.941407 5.472656v61.792969h61.792968v-114.757812h.175782c-.085938-2.738282-.175782-5.476563-.175782-8.210938v-71.238281h-88.277344c-.53125-.015625-1.0625-.074219-1.585937-.175781zm0 0"/><path d="m464.773438 233.3125c-2.03125-4.148438-3.972657-8.386719-5.738282-12.621094v54.023438h26.480469zm0 0"/><path d="m281.421875 155.542969c-16.652344 4.472656-34.191406 4.472656-50.84375 0 5.742187 17.148437 14.335937 33.203125 25.421875 47.492187 11.085938-14.289062 19.679688-30.34375 25.421875-47.492187zm0 0"/><path d="m205.949219 145.039062-55.878907 69.914063v297.046875h211.859376v-297.046875l-55.878907-69.914063c-2.027343 1.234376-4.058593 2.292969-6.089843 3.351563.109374.554687.167968 1.113281.175781 1.679687 0 16.507813-20.832031 53.671876-31.160157 64.882813-3.324218 3.652344-8.035156 5.738281-12.976562 5.738281s-9.652344-2.085937-12.976562-5.738281c-10.328126-11.210937-31.160157-48.375-31.160157-64.882813.007813-.59375.070313-1.183593.175781-1.765624-2.09375-.96875-4.128906-2.058594-6.089843-3.265626zm120.671875 331.652344h-141.242188c-4.875 0-8.828125-3.953125-8.828125-8.828125s3.953125-8.828125 8.828125-8.828125h141.242188c4.875 0 8.828125 3.953125 8.828125 8.828125s-3.953125 8.828125-8.828125 8.828125zm0-44.140625h-141.242188c-4.875 0-8.828125-3.953125-8.828125-8.828125s3.953125-8.824218 8.828125-8.824218h141.242188c4.875 0 8.828125 3.949218 8.828125 8.824218s-3.953125 8.828125-8.828125 8.828125zm0-44.136719h-141.242188c-4.875 0-8.828125-3.953124-8.828125-8.828124s3.953125-8.828126 8.828125-8.828126h141.242188c4.875 0 8.828125 3.953126 8.828125 8.828126s-3.953125 8.828124-8.828125 8.828124zm0-44.136718h-141.242188c-4.875 0-8.828125-3.953125-8.828125-8.828125s3.953125-8.828125 8.828125-8.828125h141.242188c4.875 0 8.828125 3.953125 8.828125 8.828125s-3.953125 8.828125-8.828125 8.828125zm0-44.140625h-141.242188c-4.875 0-8.828125-3.949219-8.828125-8.828125 0-4.875 3.953125-8.824219 8.828125-8.824219h141.242188c4.875 0 8.828125 3.949219 8.828125 8.824219 0 4.878906-3.953125 8.828125-8.828125 8.828125zm0-61.792969c4.875 0 8.828125 3.953125 8.828125 8.828125s-3.953125 8.828125-8.828125 8.828125h-141.242188c-4.875 0-8.828125-3.953125-8.828125-8.828125s3.953125-8.828125 8.828125-8.828125zm0 0"/><path d="m0 503.171875c0 4.875 3.953125 8.828125 8.828125 8.828125h123.585937v-70.621094h-123.585937c-4.875 0-8.828125 3.953125-8.828125 8.828125zm0 0"/><path d="m379.585938 512h123.585937c4.875 0 8.828125-3.953125 8.828125-8.828125v-52.964844c0-4.875-3.953125-8.828125-8.828125-8.828125h-123.585937zm0 0"/><path d="m0 300.136719v52.964843c0 4.878907 3.953125 8.828126 8.828125 8.828126h123.585937v-70.621094h-123.585937c-4.875 0-8.828125 3.953125-8.828125 8.828125zm0 0"/><path d="m379.585938 361.929688h123.585937c4.875 0 8.828125-3.949219 8.828125-8.828126v-52.964843c0-4.875-3.953125-8.828125-8.828125-8.828125h-123.585937zm0 0"/><path d="m379.585938 379.585938h52.964843v44.136718h-52.964843zm0 0"/><path d="m450.207031 379.585938h44.136719v44.136718h-44.136719zm0 0"/><path d="m79.449219 379.585938h52.964843v44.136718h-52.964843zm0 0"/><path d="m17.65625 379.585938h44.136719v44.136718h-44.136719zm0 0"/></svg>