<?xml version="1.0" standalone="no"?>
<!DOCTYPE svg PUBLIC "-//W3C//DTD SVG 20010904//EN"
 "http://www.w3.org/TR/2001/REC-SVG-20010904/DTD/svg10.dtd">
<svg version="1.0" xmlns="http://www.w3.org/2000/svg"
 width="840.000000pt" height="980.000000pt" viewBox="0 0 840.000000 980.000000"
 preserveAspectRatio="xMidYMid meet">

<g transform="translate(0.000000,980.000000) scale(0.100000,-0.100000)"
fill="#000000" stroke="none">
<path d="M1655 9790 c-103 -8 -136 -22 -208 -89 -97 -90 -158 -217 -182 -378
-8 -54 -26 -210 -40 -348 -48 -464 -82 -678 -145 -923 -97 -373 -238 -648
-500 -972 -42 -52 -100 -124 -129 -160 -67 -84 -105 -150 -127 -225 -35 -116
-18 -495 44 -980 l27 -210 145 -2 c80 -1 460 -7 845 -13 385 -6 727 -15 759
-20 101 -15 173 -81 196 -178 16 -71 32 -543 20 -634 -5 -46 -21 -102 -38
-140 -60 -131 -79 -136 -562 -149 -201 -5 -575 -12 -833 -15 l-467 -6 0 -464
c0 -365 3 -464 13 -464 464 -3 1514 -23 1597 -30 69 -7 129 -18 150 -28 40
-20 102 -97 119 -150 16 -48 33 -553 22 -642 -11 -86 -38 -147 -93 -206 -69
-75 -102 -85 -318 -95 -102 -4 -401 -8 -666 -9 -264 0 -562 -3 -661 -7 l-180
-6 4 -631 c4 -719 17 -1139 37 -1243 20 -98 45 -141 133 -234 126 -132 203
-154 460 -130 66 6 240 22 385 35 878 82 1773 112 3058 103 1140 -9 1641 -31
2535 -113 442 -41 521 -41 609 -1 63 29 179 140 220 210 67 114 76 240 83
1208 l6 796 -174 6 c-96 4 -394 7 -664 7 -549 1 -812 11 -895 36 -64 19 -122
73 -153 143 -39 88 -48 627 -13 758 25 95 83 158 167 184 40 12 584 28 979 29
151 0 380 3 508 7 l232 6 0 464 0 463 -112 0 c-392 1 -1440 22 -1523 30 -142
15 -181 36 -222 120 -43 86 -53 162 -53 400 0 332 20 437 98 513 78 76 14 71
992 77 l875 5 17 101 c42 255 83 787 75 971 -8 174 -17 190 -262 503 -219 279
-300 405 -384 602 -134 313 -194 600 -276 1338 -41 363 -55 442 -95 526 -38
77 -131 179 -206 224 l-58 35 -306 4 c-168 1 -405 0 -527 -4 l-221 -7 -31 -68
c-39 -84 -54 -154 -81 -385 -51 -425 -158 -840 -282 -1090 -176 -354 -421
-608 -723 -751 -162 -77 -334 -103 -547 -85 -157 13 -256 39 -375 97 -449 220
-777 729 -917 1424 -14 69 -39 231 -56 360 -38 296 -53 371 -88 440 l-28 55
-194 6 c-256 8 -682 8 -795 -1z m4818 -418 c62 -36 74 -68 82 -216 11 -197 -1
-368 -29 -408 -41 -60 -69 -73 -160 -73 -51 0 -93 5 -108 14 -59 31 -87 138
-88 336 0 213 29 330 87 353 66 26 167 23 216 -6z m-4394 -20 c65 -32 74 -56
81 -209 10 -203 -1 -392 -23 -427 -26 -39 -90 -66 -162 -66 -69 0 -118 21
-149 63 -20 27 -21 44 -24 305 l-4 277 58 38 c51 33 63 37 123 37 43 0 78 -6
100 -18z"/>
<path d="M269 5400 c-228 -15 -258 -72 -259 -490 0 -113 5 -232 10 -265 12
-77 51 -133 111 -163 71 -35 253 -41 1174 -42 l820 0 77 71 78 71 0 343 0 343
-76 71 -76 71 -877 -2 c-482 0 -924 -4 -982 -8z"/>
<path d="M6216 5343 l-76 -68 1 -350 1 -350 76 -68 77 -69 930 5 c642 3 949 9
990 17 128 24 161 70 175 242 20 240 6 527 -28 595 -29 55 -55 75 -125 91 -52
13 -212 16 -1003 19 l-942 4 -76 -68z"/>
<path d="M444 3319 c-132 -4 -259 -12 -282 -19 -58 -15 -107 -61 -127 -118
-21 -62 -39 -345 -31 -489 11 -182 36 -239 134 -302 l49 -31 971 0 971 0 75
68 75 67 2 245 c3 419 2 423 -67 500 -62 69 -68 70 -337 80 -280 11 -1082 10
-1433 -1z"/>
<path d="M6680 3321 c-423 -7 -402 -3 -473 -70 -62 -57 -62 -55 -65 -421 l-3
-335 75 -68 76 -68 952 3 c1068 4 1033 2 1094 73 18 20 37 56 43 81 17 68 25
401 13 542 -17 190 -50 233 -193 252 -93 13 -1010 20 -1519 11z"/>
</g>
</svg>
